<svg width="352" height="32" viewBox="0 0 352 32" fill="none" xmlns="http://www.w3.org/2000/svg">
<path fill-rule="evenodd" clip-rule="evenodd" d="M352 15.999C352 24.8356 344.837 31.999 336 31.999C327.163 31.999 320 24.8356 320 15.999C320 7.16249 327.163 -0.000976562 336 -0.000976562C344.837 -0.000976562 352 7.16249 352 15.999ZM330.714 14.5334C329.112 15.2332 327.465 15.9522 325.959 16.7817C325.173 17.3574 326.218 17.7647 327.198 18.1467C327.354 18.2074 327.508 18.2675 327.653 18.3275C327.774 18.3646 327.896 18.4037 328.021 18.4433C329.111 18.7907 330.327 19.1781 331.386 18.5954C333.125 17.5964 334.766 16.4414 336.406 15.2874C336.943 14.9092 337.48 14.5312 338.021 14.1588C338.046 14.1426 338.075 14.1241 338.106 14.1039C338.566 13.8054 339.602 13.1343 339.219 14.0591C338.313 15.0495 337.343 15.9262 336.368 16.8077C335.71 17.4018 335.051 17.998 334.407 18.6327C333.846 19.0884 333.263 20.0049 333.891 20.6431C335.338 21.6558 336.807 22.6439 338.275 23.6315C338.753 23.9528 339.231 24.2742 339.708 24.5963C340.516 25.2415 341.779 24.7196 341.957 23.7114C342.036 23.2476 342.115 22.7838 342.194 22.32C342.633 19.7569 343.071 17.1928 343.459 14.6214C343.511 14.218 343.571 13.8146 343.631 13.4111C343.775 12.433 343.92 11.4538 343.966 10.4704C343.849 9.48909 342.659 9.70489 341.997 9.92556C338.594 11.2206 335.224 12.6117 331.868 14.0273C331.488 14.1957 331.102 14.364 330.714 14.5334Z" fill="white"/>
<path fill-rule="evenodd" clip-rule="evenodd" d="M128 15.999C128 7.16247 135.163 -0.000976562 144 -0.000976562C152.837 -0.000976562 160 7.16247 160 15.999C160 24.8356 152.837 31.999 144 31.999C135.163 31.999 128 24.8356 128 15.999ZM144.836 21.2496C144.836 21.2496 145.144 21.216 145.302 21.0496C145.446 20.8972 145.441 20.6096 145.441 20.6096C145.441 20.6096 145.422 19.2667 146.057 19.0684C146.683 18.8734 147.487 20.3671 148.34 20.9415C148.985 21.3757 149.474 21.2807 149.474 21.2807L151.754 21.2496C151.754 21.2496 152.946 21.1775 152.38 20.2573C152.334 20.1819 152.051 19.5764 150.686 18.3326C149.256 17.0306 149.448 17.2412 151.169 14.9888C152.218 13.6171 152.637 12.7797 152.506 12.4217C152.381 12.0792 151.61 12.1701 151.61 12.1701L149.044 12.1857C149.044 12.1857 148.854 12.1603 148.713 12.2431C148.575 12.3242 148.486 12.5134 148.486 12.5134C148.486 12.5134 148.08 13.5745 147.538 14.4775C146.395 16.3817 145.939 16.4825 145.752 16.3645C145.317 16.0884 145.425 15.2567 145.425 14.6659C145.425 12.8199 145.711 12.0505 144.87 11.8514C144.592 11.785 144.386 11.7416 143.673 11.7342C142.757 11.7252 141.982 11.7375 141.543 11.9481C141.251 12.0882 141.026 12.4012 141.163 12.4192C141.333 12.4413 141.717 12.5208 141.92 12.7929C142.183 13.1444 142.174 13.9326 142.174 13.9326C142.174 13.9326 142.325 16.1056 141.821 16.3751C141.476 16.5603 141.001 16.1826 139.982 14.4545C139.46 13.5696 139.066 12.5913 139.066 12.5913C139.066 12.5913 138.991 12.4086 138.854 12.3102C138.69 12.1914 138.46 12.1546 138.46 12.1546L136.022 12.1701C136.022 12.1701 135.656 12.18 135.521 12.3365C135.402 12.4749 135.512 12.7625 135.512 12.7625C135.512 12.7625 137.421 17.147 139.583 19.3568C141.566 21.3823 143.816 21.2496 143.816 21.2496H144.836Z" fill="white"/>
<path fill-rule="evenodd" clip-rule="evenodd" d="M192 15.999C192 7.16247 199.163 -0.000976562 208 -0.000976562C216.837 -0.000976562 224 7.16247 224 15.999C224 24.8356 216.837 31.999 208 31.999C199.163 31.999 192 24.8356 192 15.999ZM208.001 7.46569C205.683 7.46569 205.392 7.47582 204.482 7.51725C203.574 7.55885 202.954 7.70267 202.411 7.91369C201.85 8.13165 201.374 8.42321 200.899 8.89771C200.425 9.37202 200.133 9.84811 199.914 10.4092C199.703 10.9519 199.559 11.5722 199.518 12.4803C199.477 13.3906 199.467 13.6816 199.467 15.9991C199.467 18.3166 199.477 18.6066 199.518 19.5168C199.56 20.4253 199.704 21.0454 199.915 21.588C200.133 22.1492 200.424 22.6253 200.899 23.0996C201.373 23.5743 201.849 23.8666 202.41 24.0845C202.953 24.2956 203.573 24.4394 204.481 24.481C205.392 24.5224 205.682 24.5325 208 24.5325C210.317 24.5325 210.607 24.5224 211.518 24.481C212.426 24.4394 213.047 24.2956 213.59 24.0845C214.151 23.8666 214.626 23.5743 215.1 23.0996C215.575 22.6253 215.867 22.1492 216.085 21.5881C216.295 21.0454 216.439 20.4251 216.482 19.517C216.523 18.6068 216.533 18.3166 216.533 15.9991C216.533 13.6816 216.523 13.3907 216.482 12.4805C216.439 11.572 216.295 10.9519 216.085 10.4094C215.867 9.84811 215.575 9.37202 215.1 8.89771C214.626 8.42303 214.151 8.13147 213.589 7.91369C213.045 7.70267 212.425 7.55885 211.516 7.51725C210.606 7.47582 210.316 7.46569 207.998 7.46569H208.001Z" fill="white"/>
<path fill-rule="evenodd" clip-rule="evenodd" d="M207.235 9.00348C207.462 9.00313 207.716 9.00348 208.001 9.00348C210.279 9.00348 210.549 9.01166 211.449 9.05255C212.281 9.0906 212.733 9.22962 213.033 9.34642C213.432 9.50109 213.716 9.68598 214.014 9.98465C214.313 10.2833 214.498 10.5678 214.653 10.966C214.769 11.2664 214.909 11.718 214.946 12.55C214.987 13.4496 214.996 13.7198 214.996 15.9972C214.996 18.2745 214.987 18.5447 214.946 19.4443C214.908 20.2763 214.769 20.7279 214.653 21.0283C214.498 21.4265 214.313 21.7101 214.014 22.0086C213.715 22.3073 213.432 22.4922 213.033 22.6468C212.733 22.7642 212.281 22.9028 211.449 22.9409C210.549 22.9818 210.279 22.9907 208.001 22.9907C205.722 22.9907 205.452 22.9818 204.553 22.9409C203.721 22.9025 203.269 22.7634 202.968 22.6466C202.57 22.492 202.285 22.3071 201.987 22.0084C201.688 21.7097 201.503 21.426 201.348 21.0276C201.231 20.7272 201.092 20.2756 201.054 19.4436C201.013 18.544 201.005 18.2738 201.005 15.995C201.005 13.7162 201.013 13.4474 201.054 12.5479C201.092 11.7159 201.231 11.2643 201.348 10.9635C201.503 10.5653 201.688 10.2808 201.987 9.98216C202.285 9.68349 202.57 9.4986 202.968 9.34358C203.269 9.22624 203.721 9.08757 204.553 9.04935C205.34 9.01379 205.645 9.00313 207.235 9.00135V9.00348ZM212.556 10.4204C211.991 10.4204 211.532 10.8785 211.532 11.444C211.532 12.0094 211.991 12.4681 212.556 12.4681C213.121 12.4681 213.58 12.0094 213.58 11.444C213.58 10.8787 213.121 10.4204 212.556 10.4204ZM208.001 11.6168C205.581 11.6168 203.619 13.579 203.619 15.9991C203.619 18.4192 205.581 20.3805 208.001 20.3805C210.421 20.3805 212.382 18.4192 212.382 15.9991C212.382 13.579 210.421 11.6168 208.001 11.6168Z" fill="white"/>
<path fill-rule="evenodd" clip-rule="evenodd" d="M208.001 13.1546C209.572 13.1546 210.845 14.4281 210.845 15.9991C210.845 17.57 209.572 18.8436 208.001 18.8436C206.43 18.8436 205.156 17.57 205.156 15.9991C205.156 14.4281 206.43 13.1546 208.001 13.1546Z" fill="white"/>
<path fill-rule="evenodd" clip-rule="evenodd" d="M0 15.999C0 7.16247 7.16344 -0.000976562 16 -0.000976562C24.8366 -0.000976562 32 7.16247 32 15.999C32 24.8356 24.8366 31.999 16 31.999C7.16344 31.999 0 24.8356 0 15.999ZM11.3072 13.251H7.68125V24.1455H11.3072V13.251ZM11.5456 9.88082C11.522 8.81263 10.7582 7.99902 9.51776 7.99902C8.27735 7.99902 7.46641 8.81263 7.46641 9.88082C7.46641 10.9269 8.25338 11.7639 9.47069 11.7639H9.49387C10.7582 11.7639 11.5456 10.9269 11.5456 9.88082ZM24.3836 17.8988C24.3836 14.5525 22.5948 12.9951 20.2088 12.9951C18.2836 12.9951 17.4217 14.0525 16.9405 14.7943V13.2512H13.3141C13.3619 14.2735 13.3141 24.1457 13.3141 24.1457H16.9405V18.0613C16.9405 17.7357 16.964 17.4109 17.0599 17.1778C17.3219 16.5273 17.9186 15.8538 18.9203 15.8538C20.2329 15.8538 20.7576 16.8528 20.7576 18.3168V24.1454H24.3834L24.3836 17.8988Z" fill="white"/>
<path fill-rule="evenodd" clip-rule="evenodd" d="M272 31.999C263.163 31.999 256 24.8356 256 15.999C256 7.16247 263.163 -0.000976562 272 -0.000976562C280.837 -0.000976562 288 7.16247 288 15.999C288 24.8356 280.837 31.999 272 31.999ZM272.527 24.9007C277.773 24.8986 282.039 20.6312 282.041 15.3867C282.042 12.8446 281.054 10.4542 279.257 8.65596C277.461 6.8576 275.072 5.86679 272.527 5.86569C267.283 5.86569 263.015 10.1335 263.013 15.3792C263.012 17.056 263.45 18.6927 264.283 20.1356L262.933 25.0657L267.977 23.7427C269.367 24.5006 270.931 24.9002 272.523 24.9007H272.527Z" fill="white"/>
<path fill-rule="evenodd" clip-rule="evenodd" d="M268.211 22.02L265.218 22.8051L266.017 19.8871L265.829 19.5879C265.037 18.3289 264.619 16.8737 264.62 15.3795C264.621 11.0195 268.169 7.47241 272.531 7.47241C274.643 7.47314 276.628 8.29672 278.121 9.79145C279.614 11.2862 280.436 13.2729 280.435 15.3859C280.433 19.7462 276.886 23.2937 272.527 23.2937H272.524C271.105 23.2931 269.714 22.9119 268.499 22.1914L268.211 22.02ZM277.321 17.6489C277.261 17.5497 277.103 17.4902 276.865 17.3712C276.627 17.2522 275.458 16.6772 275.241 16.5978C275.023 16.5185 274.864 16.4788 274.706 16.7167C274.547 16.9547 274.092 17.4902 273.953 17.6489C273.814 17.8075 273.676 17.8274 273.438 17.7084C273.2 17.5894 272.434 17.3384 271.526 16.5284C270.82 15.8981 270.342 15.1196 270.204 14.8816C270.065 14.6436 270.189 14.515 270.308 14.3965C270.415 14.2899 270.546 14.1187 270.665 13.98C270.783 13.8412 270.823 13.742 270.902 13.5834C270.982 13.4247 270.942 13.2859 270.882 13.1669C270.823 13.0479 270.348 11.8778 270.15 11.4018C269.957 10.9382 269.761 11.001 269.615 10.9937C269.476 10.9868 269.317 10.9853 269.159 10.9853C269.001 10.9853 268.743 11.0448 268.525 11.2828C268.307 11.5208 267.693 12.0959 267.693 13.266C267.693 14.4361 268.545 15.5665 268.664 15.7251C268.783 15.8839 270.34 18.285 272.725 19.3147C273.292 19.5597 273.735 19.7059 274.08 19.8155C274.649 19.9964 275.168 19.9709 275.577 19.9097C276.034 19.8414 276.984 19.3346 277.182 18.7794C277.38 18.224 277.38 17.748 277.321 17.6489Z" fill="white"/>
<path fill-rule="evenodd" clip-rule="evenodd" d="M64 15.999C64 7.16247 71.1634 -0.000976562 80 -0.000976562C88.8366 -0.000976562 96 7.16247 96 15.999C96 24.8356 88.8366 31.999 80 31.999C71.1634 31.999 64 24.8356 64 15.999ZM88.1767 12.0478C87.9804 11.2938 87.4021 10.7001 86.6677 10.4986C85.3369 10.1324 80 10.1324 80 10.1324C80 10.1324 74.6631 10.1324 73.3322 10.4986C72.5978 10.7001 72.0195 11.2938 71.8232 12.0478C71.4667 13.4144 71.4667 16.2657 71.4667 16.2657C71.4667 16.2657 71.4667 19.1169 71.8232 20.4835C72.0195 21.2375 72.5978 21.8313 73.3322 22.0329C74.6631 22.399 80 22.399 80 22.399C80 22.399 85.3369 22.399 86.6677 22.0329C87.4021 21.8313 87.9804 21.2375 88.1767 20.4835C88.5333 19.1169 88.5333 16.2657 88.5333 16.2657C88.5333 16.2657 88.5333 13.4144 88.1767 12.0478Z" fill="white"/>
<path fill-rule="evenodd" clip-rule="evenodd" d="M78.4 19.1991V13.8657L82.6667 16.5325L78.4 19.1991Z" fill="white"/>
</svg>
