<svg width="319" height="48" viewBox="0 0 319 48" fill="none" xmlns="http://www.w3.org/2000/svg">
<g clip-path="url(#clip0_109_1311)">
<path fill-rule="evenodd" clip-rule="evenodd" d="M58.8864 12.2276V25.8472H45.4473V13.9796C45.4473 13.012 44.6623 12.2276 43.6942 12.2276H39.1582V44.6832C39.1582 45.6511 39.9428 46.4357 40.9113 46.4357H45.4473V31.3399H58.8864V44.6832C58.8864 45.6511 59.671 46.4357 60.6395 46.4357H65.1753V13.9796C65.1753 13.012 64.3905 12.2276 63.422 12.2276H58.8864Z" fill="white"/>
<path fill-rule="evenodd" clip-rule="evenodd" d="M85.2666 20.2924V36.5027C85.2666 37.9757 84.5151 39.372 83.2392 40.1088C79.6781 42.1656 75.9927 39.5963 75.9927 36.2088V22.0445C75.9927 21.0768 75.2079 20.2924 74.2397 20.2924H69.6855V36.7864C69.6855 42.0936 74.0295 46.4357 79.339 46.4357H81.9203C87.23 46.4357 91.5738 42.0936 91.5738 36.7864V22.0445C91.5738 21.0768 90.7892 20.2924 89.8211 20.2924H85.2666Z" fill="white"/>
<path fill-rule="evenodd" clip-rule="evenodd" d="M155.22 46.4357H159.756V23.4801C159.756 22.5121 158.97 21.7277 158.003 21.7277H153.467V44.6833C153.467 45.6513 154.252 46.4357 155.22 46.4357Z" fill="#2483FF"/>
<path fill-rule="evenodd" clip-rule="evenodd" d="M156.611 19.24C158.55 19.24 160.121 17.6692 160.121 15.7316C160.121 13.794 158.55 12.2236 156.611 12.2236C154.673 12.2236 153.102 13.794 153.102 15.7316C153.102 17.6692 154.673 19.24 156.611 19.24Z" fill="#2483FF"/>
<path fill-rule="evenodd" clip-rule="evenodd" d="M113.706 35.5813C113.706 38.7 111.154 40.776 108.033 40.776C104.913 40.776 102.36 38.7 102.36 35.5813V31.1309C102.36 28.012 104.913 25.936 108.033 25.936C111.154 25.936 113.706 28.012 113.706 31.1309V35.5813ZM108.033 20.2764C101.436 20.2764 96.0391 24.9932 96.0391 31.5869V35.1533C96.0391 41.7469 101.436 46.4357 108.033 46.4357C114.63 46.4357 120.028 41.7469 120.028 35.1533V31.5869C120.028 24.9932 114.63 20.2764 108.033 20.2764Z" fill="white"/>
<path fill-rule="evenodd" clip-rule="evenodd" d="M142.253 35.5812C142.253 38.7001 139.7 40.7761 136.58 40.7761C133.46 40.7761 130.907 38.7001 130.907 35.5812V31.1309C130.907 28.012 133.46 25.936 136.58 25.936C139.7 25.936 142.253 28.012 142.253 31.1309V35.5812ZM136.58 20.2765C134.518 20.2765 132.574 20.7373 130.875 21.572V13.9505C130.875 12.9824 130.09 12.1981 129.122 12.1981H124.586V35.1533C124.586 41.7472 129.984 46.4357 136.58 46.4357C143.177 46.4357 148.575 41.7472 148.575 35.1533V31.5869C148.575 24.9932 143.177 20.2765 136.58 20.2765Z" fill="#2483FF"/>
<path fill-rule="evenodd" clip-rule="evenodd" d="M267.655 35.6896C267.655 38.776 265.128 40.8308 262.041 40.8308C258.952 40.8308 256.425 38.776 256.425 35.6896V31.2847C256.425 28.1983 258.952 26.1437 262.041 26.1437C265.128 26.1437 267.655 28.1983 267.655 31.2847V35.6896ZM262.041 20.5424C260.001 20.5424 258.075 20.998 256.395 21.8239V13.956C256.395 12.9984 255.618 12.222 254.658 12.222H250.17V35.2661C250.17 41.7919 255.511 46.432 262.041 46.432C268.569 46.432 273.91 41.7919 273.91 35.2661V31.7359C273.91 25.2103 268.569 20.5424 262.041 20.5424Z" fill="white"/>
<path fill-rule="evenodd" clip-rule="evenodd" d="M318.05 46.3148V42.3677C318.05 41.4332 317.293 40.6768 316.359 40.68C315.412 40.6833 314.225 40.6864 313.224 40.6864C310.669 40.6864 310.786 39.4096 310.786 36.0993V13.9384C310.786 13.006 310.032 12.2504 309.1 12.2504H304.494V36.856C304.494 42.8147 306.032 46.3148 312.467 46.3148C314.954 46.3148 316.756 46.2443 318.05 46.3152V46.3148Z" fill="white"/>
<path fill-rule="evenodd" clip-rule="evenodd" d="M197.515 25.9908H185.346V29.3052C185.346 30.3016 186.154 31.1093 187.15 31.1093H192.931V34.0397C192.931 36.2017 192.391 37.7972 191.274 38.9217C189.904 40.336 188.008 41.0833 185.791 41.0833C183.794 41.0833 181.893 40.3921 180.707 39.2348C179.058 37.6192 178.702 35.8648 178.702 29.3525C178.702 22.8773 179.058 21.1308 180.706 19.5168C181.923 18.33 184.296 17.432 186.263 17.432C192.916 17.432 195.15 19.792 196.817 21.9409H197.035V17.1356C197.035 16.4252 196.696 15.7612 196.141 15.3176C193.354 13.088 190.576 12.2732 185.791 12.2732C181.928 12.2732 178.624 13.4868 175.973 15.88C172.311 19.1844 172.312 22.9129 172.313 29.0896V29.6152C172.312 35.7919 172.311 39.52 175.973 42.8243C178.587 45.1849 181.983 46.432 185.791 46.432C189.792 46.432 193.314 45.086 195.975 42.5401L195.976 42.5392C198.351 40.2592 199.32 35.8929 199.32 31.3528V27.7945C199.32 26.7985 198.512 25.9908 197.515 25.9908Z" fill="white"/>
<path fill-rule="evenodd" clip-rule="evenodd" d="M217.344 46.3148V42.3677C217.344 41.4332 216.587 40.6768 215.652 40.68C214.707 40.6833 213.52 40.6864 212.517 40.6864C209.962 40.6864 210.081 39.4096 210.081 36.0993V13.9384C210.081 13.006 209.326 12.2504 208.394 12.2504H203.789V36.856C203.789 42.8147 205.326 46.3148 211.761 46.3148C214.247 46.3148 216.051 46.2443 217.344 46.3152L217.344 46.3148Z" fill="white"/>
<path fill-rule="evenodd" clip-rule="evenodd" d="M239.37 35.6896C239.37 38.776 236.843 40.8308 233.756 40.8308C230.669 40.8308 228.142 38.776 228.142 35.6896V31.2849C228.142 28.1985 230.669 26.1437 233.756 26.1437C236.843 26.1437 239.37 28.1985 239.37 31.2849V35.6896ZM233.756 20.5425C227.228 20.5425 221.885 25.2105 221.885 31.7361V35.2661C221.885 41.7921 227.228 46.432 233.756 46.432C240.286 46.432 245.627 41.7921 245.627 35.2661V31.7361C245.627 25.2105 240.286 20.5425 233.756 20.5425Z" fill="white"/>
<path fill-rule="evenodd" clip-rule="evenodd" d="M293.769 34.7128V41.2089C293.285 41.3028 292.748 41.3776 292.167 41.4308C290.743 41.5648 289.466 41.5892 287.985 41.4544C287.405 41.402 286.868 41.2541 286.392 41.018C285.932 40.7889 285.554 40.4632 285.242 40.0216C284.946 39.6033 284.795 38.9852 284.795 38.1849C284.795 36.938 285.238 36.0452 286.154 35.4544C287.13 34.8252 288.605 34.5057 290.544 34.5057C291.066 34.5057 291.703 34.5356 292.455 34.5952C292.946 34.6345 293.387 34.6737 293.769 34.7128ZM297.135 22.7425C295.27 21.2533 292.543 20.4985 289.028 20.4985C287.723 20.4985 286.349 20.5937 284.946 20.7809C283.822 20.9309 282.229 21.1457 281.125 21.4001C280.678 21.5033 280.595 21.8549 280.595 22.276V25.634C280.595 26.2325 280.602 26.7769 281.237 26.6224C282.419 26.3344 284.712 25.8265 285.336 25.7237C286.32 25.5616 287.394 25.48 288.524 25.48C290.285 25.48 291.626 25.7948 292.512 26.4136C293.346 26.9968 293.769 28.1069 293.769 29.7125V29.9069C293.455 29.8781 293.112 29.8504 292.737 29.8253C292.034 29.778 291.135 29.754 290.038 29.754C288.541 29.754 287.09 29.9237 285.729 30.2584C284.346 30.5992 283.102 31.1257 282.033 31.8245C280.944 32.5373 280.071 33.4417 279.439 34.5153C278.799 35.5964 278.477 36.8628 278.477 38.2772C278.477 39.714 278.754 40.9648 279.299 41.994C279.849 43.0325 280.641 43.8985 281.651 44.5668C282.644 45.2268 283.863 45.7092 285.273 46.0028C286.643 46.2876 288.197 46.432 289.887 46.432C291.118 46.432 299.985 46.3072 299.985 42.0893C299.985 37.2016 299.985 29.896 299.985 29.896C299.985 26.6604 299.027 24.2536 297.135 22.7425Z" fill="white"/>
<path fill-rule="evenodd" clip-rule="evenodd" d="M20.327 14.602C20.327 7.79002 17.0071 1.93202 14.4819 0.024423C14.4715 0.0184231 14.2886 -0.0843768 14.3042 0.188023L14.3006 0.196423C14.0909 13.3488 7.36867 16.9136 3.673 21.7156C-4.8557 32.7971 3.07593 44.9468 11.1528 47.1923C15.6721 48.4489 10.1091 44.9693 9.39281 37.6196C8.52641 28.7363 20.327 21.9557 20.327 14.602Z" fill="white"/>
<path fill-rule="evenodd" clip-rule="evenodd" d="M24.2014 19.08C24.1497 19.0448 24.0759 19.0208 24.0253 19.1048C23.8863 20.7604 22.1943 24.302 20.0498 27.554C12.7761 38.5849 16.9211 43.9024 19.2518 46.7584C20.6052 48.4164 19.2518 46.7584 22.6346 45.064C22.8995 44.9313 29.2348 41.38 29.9208 33.2889C30.5849 25.4536 25.8768 20.5148 24.2014 19.08Z" fill="#2483FF"/>
</g>
<defs>
<clipPath id="clip0_109_1311">
<rect width="318.545" height="48" fill="white"/>
</clipPath>
</defs>
</svg>
