<svg width="160" height="88" viewBox="0 0 160 88" fill="none" xmlns="http://www.w3.org/2000/svg">
<path fill-rule="evenodd" clip-rule="evenodd" d="M160 72C160 80.8365 152.837 88 144 88C135.163 88 128 80.8365 128 72C128 63.1635 135.163 56 144 56C152.837 56 160 63.1635 160 72ZM138.714 70.5343C137.112 71.2341 135.465 71.9532 133.959 72.7827C133.173 73.3584 134.218 73.7657 135.198 74.1477C135.354 74.2084 135.508 74.2685 135.653 74.3285C135.774 74.3656 135.896 74.4047 136.021 74.4443C137.111 74.7917 138.327 75.1791 139.386 74.5963C141.125 73.5973 142.766 72.4424 144.406 71.2883C144.943 70.9102 145.48 70.5322 146.021 70.1598C146.046 70.1436 146.075 70.1251 146.106 70.1049C146.566 69.8064 147.602 69.1353 147.219 70.0601C146.313 71.0505 145.343 71.9271 144.368 72.8087C143.71 73.4027 143.051 73.999 142.407 74.6337C141.846 75.0894 141.263 76.0059 141.891 76.6441C143.338 77.6567 144.807 78.6449 146.275 79.6325C146.753 79.9538 147.231 80.2751 147.708 80.5973C148.516 81.2425 149.779 80.7205 149.957 79.7123C150.036 79.2485 150.115 78.7848 150.194 78.321C150.633 75.7579 151.071 73.1938 151.459 70.6223C151.511 70.2189 151.571 69.8156 151.631 69.4121C151.775 68.434 151.92 67.4547 151.966 66.4714C151.849 65.4901 150.659 65.7059 149.997 65.9265C146.594 67.2216 143.224 68.6127 139.868 70.0283C139.488 70.1967 139.102 70.3649 138.714 70.5343Z" fill="white"/>
<path fill-rule="evenodd" clip-rule="evenodd" d="M128 16C128 7.16344 135.163 0 144 0C152.837 0 160 7.16344 160 16C160 24.8366 152.837 32 144 32C135.163 32 128 24.8366 128 16ZM144.836 21.2508C144.836 21.2508 145.144 21.2172 145.302 21.0509C145.446 20.8985 145.441 20.6109 145.441 20.6109C145.441 20.6109 145.422 19.2679 146.057 19.0696C146.683 18.8746 147.487 20.3683 148.34 20.9427C148.985 21.377 149.474 21.2819 149.474 21.2819L151.754 21.2508C151.754 21.2508 152.946 21.1787 152.38 20.2585C152.334 20.1831 152.051 19.5776 150.686 18.3338C149.256 17.0319 149.448 17.2424 151.169 14.99C152.218 13.6184 152.637 12.781 152.506 12.4229C152.381 12.0804 151.61 12.1714 151.61 12.1714L149.044 12.1869C149.044 12.1869 148.854 12.1615 148.713 12.2443C148.575 12.3254 148.486 12.5147 148.486 12.5147C148.486 12.5147 148.08 13.5758 147.538 14.4787C146.395 16.3829 145.939 16.4837 145.752 16.3657C145.317 16.0896 145.425 15.2579 145.425 14.6672C145.425 12.8211 145.711 12.0517 144.87 11.8526C144.592 11.7862 144.386 11.7428 143.673 11.7354C142.757 11.7264 141.982 11.7387 141.543 11.9493C141.251 12.0894 141.026 12.4024 141.163 12.4204C141.333 12.4426 141.717 12.522 141.92 12.7941C142.183 13.1456 142.174 13.9338 142.174 13.9338C142.174 13.9338 142.325 16.1068 141.821 16.3764C141.476 16.5615 141.001 16.1838 139.982 14.4558C139.46 13.5708 139.066 12.5925 139.066 12.5925C139.066 12.5925 138.991 12.4098 138.854 12.3115C138.69 12.1927 138.46 12.1558 138.46 12.1558L136.022 12.1714C136.022 12.1714 135.656 12.1812 135.521 12.3377C135.402 12.4762 135.512 12.7638 135.512 12.7638C135.512 12.7638 137.421 17.1482 139.583 19.358C141.566 21.3835 143.816 21.2508 143.816 21.2508H144.836Z" fill="white"/>
<path fill-rule="evenodd" clip-rule="evenodd" d="M0 72C0 63.1634 7.16344 56 16 56C24.8366 56 32 63.1634 32 72C32 80.8366 24.8366 88 16 88C7.16344 88 0 80.8366 0 72ZM16.0008 63.4667C13.6833 63.4667 13.3924 63.4768 12.4822 63.5182C11.5737 63.5598 10.9536 63.7036 10.4111 63.9147C9.8498 64.1326 9.37371 64.4242 8.89939 64.8987C8.42472 65.373 8.13316 65.8491 7.91449 66.4102C7.70294 66.9529 7.55893 67.5732 7.51804 68.4813C7.47733 69.3915 7.46667 69.6826 7.46667 72.0001C7.46667 74.3176 7.47698 74.6076 7.51822 75.5178C7.56 76.4263 7.70382 77.0464 7.91467 77.5889C8.13281 78.1502 8.42437 78.6263 8.89886 79.1006C9.373 79.5753 9.84909 79.8675 10.41 80.0855C10.9529 80.2965 11.5732 80.4404 12.4815 80.482C13.3917 80.5234 13.6824 80.5335 15.9997 80.5335C18.3174 80.5335 18.6074 80.5234 19.5176 80.482C20.4261 80.4404 21.0469 80.2965 21.5898 80.0855C22.1509 79.8675 22.6263 79.5753 23.1004 79.1006C23.5751 78.6263 23.8667 78.1502 24.0853 77.5891C24.2951 77.0464 24.4391 76.4261 24.4818 75.518C24.5227 74.6078 24.5333 74.3176 24.5333 72.0001C24.5333 69.6826 24.5227 69.3917 24.4818 68.4815C24.4391 67.573 24.2951 66.9529 24.0853 66.4103C23.8667 65.8491 23.5751 65.373 23.1004 64.8987C22.6258 64.424 22.1511 64.1325 21.5893 63.9147C21.0453 63.7036 20.4248 63.5598 19.5164 63.5182C18.6062 63.4768 18.3164 63.4667 15.9981 63.4667H16.0008Z" fill="white"/>
<path fill-rule="evenodd" clip-rule="evenodd" d="M15.2353 65.0045C15.4625 65.0041 15.716 65.0045 16.0008 65.0045C18.2792 65.0045 18.5493 65.0126 19.449 65.0535C20.281 65.0916 20.7326 65.2306 21.0334 65.3474C21.4316 65.5021 21.7155 65.687 22.014 65.9856C22.3127 66.2843 22.4976 66.5687 22.6526 66.967C22.7694 67.2674 22.9086 67.719 22.9465 68.551C22.9874 69.4506 22.9963 69.7208 22.9963 71.9981C22.9963 74.2755 22.9874 74.5457 22.9465 75.4453C22.9084 76.2773 22.7694 76.7288 22.6526 77.0293C22.4979 77.4275 22.3127 77.7111 22.014 78.0096C21.7153 78.3082 21.4318 78.4931 21.0334 78.6478C20.7329 78.7651 20.281 78.9038 19.449 78.9418C18.5494 78.9827 18.2792 78.9916 16.0008 78.9916C13.7222 78.9916 13.4522 78.9827 12.5526 78.9418C11.7206 78.9035 11.269 78.7644 10.968 78.6476C10.5698 78.493 10.2854 78.3081 9.98669 78.0094C9.68802 77.7107 9.50313 77.427 9.34811 77.0286C9.23131 76.7281 9.09211 76.2766 9.05424 75.4446C9.01335 74.545 9.00517 74.2748 9.00517 71.996C9.00517 69.7172 9.01335 69.4484 9.05424 68.5489C9.09228 67.7168 9.23131 67.2653 9.34811 66.9645C9.50278 66.5663 9.68802 66.2818 9.98669 65.9831C10.2854 65.6845 10.5698 65.4996 10.968 65.3446C11.2688 65.2272 11.7206 65.0886 12.5526 65.0503C13.3398 65.0148 13.6449 65.0041 15.2353 65.0023V65.0045ZM20.5559 66.4214C19.9905 66.4214 19.5319 66.8795 19.5319 67.445C19.5319 68.0104 19.9905 68.469 20.5559 68.469C21.1212 68.469 21.5799 68.0104 21.5799 67.445C21.5799 66.8797 21.1212 66.4214 20.5559 66.4214ZM16.0008 67.6178C13.5807 67.6178 11.6185 69.58 11.6185 72.0001C11.6185 74.4202 13.5807 76.3815 16.0008 76.3815C18.4209 76.3815 20.3824 74.4202 20.3824 72.0001C20.3824 69.58 18.4209 67.6178 16.0008 67.6178Z" fill="white"/>
<path fill-rule="evenodd" clip-rule="evenodd" d="M16.0008 69.1556C17.5717 69.1556 18.8453 70.4291 18.8453 72.0001C18.8453 73.5709 17.5717 74.8446 16.0008 74.8446C14.4298 74.8446 13.1563 73.5709 13.1563 72.0001C13.1563 70.4291 14.4298 69.1556 16.0008 69.1556Z" fill="white"/>
<path fill-rule="evenodd" clip-rule="evenodd" d="M0 16C0 7.16344 7.16344 0 16 0C24.8366 0 32 7.16344 32 16C32 24.8366 24.8366 32 16 32C7.16344 32 0 24.8366 0 16ZM11.3072 13.252H7.68125V24.1464H11.3072V13.252ZM11.5456 9.8818C11.522 8.8136 10.7582 8 9.51776 8C8.27735 8 7.46641 8.8136 7.46641 9.8818C7.46641 10.9279 8.25338 11.7649 9.47069 11.7649H9.49387C10.7582 11.7649 11.5456 10.9279 11.5456 9.8818ZM24.3836 17.8998C24.3836 14.5535 22.5948 12.9961 20.2088 12.9961C18.2836 12.9961 17.4217 14.0535 16.9405 14.7953V13.2522H13.3141C13.3619 14.2745 13.3141 24.1467 13.3141 24.1467H16.9405V18.0623C16.9405 17.7367 16.964 17.4119 17.0599 17.1788C17.3219 16.5283 17.9186 15.8548 18.9203 15.8548C20.2329 15.8548 20.7576 16.8538 20.7576 18.3178V24.1464H24.3834L24.3836 17.8998Z" fill="white"/>
<path fill-rule="evenodd" clip-rule="evenodd" d="M80 88C71.1634 88 64 80.8366 64 72C64 63.1634 71.1634 56 80 56C88.8366 56 96 63.1634 96 72C96 80.8366 88.8366 88 80 88ZM80.5274 80.9017C85.773 80.8995 90.0393 76.6322 90.0414 71.3877C90.0424 68.8456 89.0537 66.4552 87.2575 64.6569C85.4612 62.8586 83.0724 61.8678 80.5273 61.8667C75.2832 61.8667 71.0152 66.1345 71.0131 71.3802C71.0124 73.057 71.4505 74.6937 72.2831 76.1366L70.9333 81.0667L75.9769 79.7436C77.3665 80.5016 78.9311 80.9011 80.5234 80.9017H80.5274Z" fill="white"/>
<path fill-rule="evenodd" clip-rule="evenodd" d="M76.2103 78.0213L73.2173 78.8064L74.0162 75.8883L73.8282 75.5891C73.0366 74.3301 72.6185 72.8749 72.6191 71.3807C72.6209 67.0207 76.1683 63.4736 80.5302 63.4736C82.6423 63.4744 84.6278 64.2979 86.1208 65.7927C87.6138 67.2874 88.4355 69.2741 88.4347 71.3871C88.433 75.7474 84.8856 79.2949 80.5271 79.2949H80.5239C79.1049 79.2944 77.7131 78.9131 76.499 78.1926L76.2103 78.0213ZM85.3202 73.6501C85.2608 73.5509 85.1023 73.4914 84.8646 73.3724C84.6269 73.2534 83.4581 72.6784 83.2402 72.599C83.0223 72.5197 82.8638 72.4801 82.7053 72.718C82.5469 72.9559 82.0913 73.4914 81.9526 73.6501C81.8139 73.8087 81.6752 73.8286 81.4376 73.7096C81.1999 73.5906 80.4339 73.3396 79.5259 72.5297C78.8191 71.8993 78.342 71.1208 78.2034 70.8828C78.0647 70.6448 78.1886 70.5162 78.3076 70.3977C78.4145 70.2911 78.5453 70.12 78.6642 69.9812C78.783 69.8424 78.8227 69.7432 78.9019 69.5846C78.9811 69.4259 78.9415 69.2871 78.8821 69.1681C78.8227 69.0491 78.3472 67.879 78.1491 67.403C77.9562 66.9395 77.7602 67.0023 77.6143 66.9949C77.4758 66.988 77.3171 66.9865 77.1586 66.9865C77.0002 66.9865 76.7426 67.046 76.5247 67.284C76.3068 67.522 75.6927 68.0971 75.6927 69.2672C75.6927 70.4373 76.5445 71.5677 76.6634 71.7264C76.7822 71.8851 78.3397 74.2862 80.7244 75.3159C81.2916 75.5609 81.7344 75.7071 82.0797 75.8167C82.6491 75.9977 83.1674 75.9721 83.5769 75.9109C84.0337 75.8427 84.9834 75.3359 85.1816 74.7806C85.3796 74.2252 85.3796 73.7492 85.3202 73.6501Z" fill="white"/>
<path fill-rule="evenodd" clip-rule="evenodd" d="M64 16C64 7.16344 71.1634 0 80 0C88.8366 0 96 7.16344 96 16C96 24.8366 88.8366 32 80 32C71.1634 32 64 24.8366 64 16ZM88.1767 12.0488C87.9804 11.2948 87.4021 10.7011 86.6677 10.4996C85.3369 10.1333 80 10.1333 80 10.1333C80 10.1333 74.6631 10.1333 73.3322 10.4996C72.5978 10.7011 72.0195 11.2948 71.8232 12.0488C71.4667 13.4154 71.4667 16.2667 71.4667 16.2667C71.4667 16.2667 71.4667 19.1179 71.8232 20.4845C72.0195 21.2385 72.5978 21.8323 73.3322 22.0339C74.6631 22.4 80 22.4 80 22.4C80 22.4 85.3369 22.4 86.6677 22.0339C87.4021 21.8323 87.9804 21.2385 88.1767 20.4845C88.5333 19.1179 88.5333 16.2667 88.5333 16.2667C88.5333 16.2667 88.5333 13.4154 88.1767 12.0488Z" fill="white"/>
<path fill-rule="evenodd" clip-rule="evenodd" d="M78.4004 19.1995V13.8662L82.6671 16.533L78.4004 19.1995Z" fill="white"/>
</svg>
