<svg width="120" height="86" viewBox="0 0 120 86" fill="none" xmlns="http://www.w3.org/2000/svg">
<g filter="url(#filter0_d_139_1496)">
<rect x="28" y="26" width="64" height="30" rx="10" fill="#38D1BC"/>
</g>
<path d="M45.8371 38.9774C45.7973 38.5764 45.6266 38.2648 45.325 38.0427C45.0234 37.8207 44.6141 37.7096 44.097 37.7096C43.7457 37.7096 43.4491 37.7594 43.2071 37.8588C42.9652 37.9549 42.7796 38.0891 42.6503 38.2615C42.5244 38.4338 42.4614 38.6294 42.4614 38.8481C42.4548 39.0304 42.4929 39.1895 42.5757 39.3254C42.6619 39.4613 42.7796 39.579 42.9287 39.6784C43.0779 39.7745 43.2502 39.859 43.4458 39.932C43.6413 40.0016 43.8501 40.0612 44.0722 40.1109L44.9869 40.3297C45.4311 40.4291 45.8387 40.5617 46.21 40.7274C46.5812 40.8931 46.9027 41.097 47.1744 41.3389C47.4462 41.5809 47.6567 41.8659 47.8058 42.194C47.9583 42.5222 48.0362 42.8983 48.0395 43.3226C48.0362 43.9457 47.8771 44.4859 47.5622 44.9433C47.2507 45.3974 46.7999 45.7504 46.21 46.0023C45.6233 46.2508 44.9157 46.3751 44.0871 46.3751C43.2651 46.3751 42.5492 46.2492 41.9394 45.9973C41.3328 45.7454 40.8589 45.3725 40.5175 44.8787C40.1794 44.3815 40.0021 43.7667 39.9855 43.0342H42.0686C42.0918 43.3756 42.1896 43.6606 42.3619 43.8893C42.5376 44.1147 42.7713 44.2854 43.0629 44.4014C43.3579 44.5141 43.691 44.5704 44.0622 44.5704C44.4268 44.5704 44.7433 44.5174 45.0118 44.4114C45.2836 44.3053 45.4941 44.1578 45.6432 43.9689C45.7923 43.78 45.8669 43.5629 45.8669 43.3176C45.8669 43.0889 45.799 42.8967 45.6631 42.7409C45.5305 42.5851 45.335 42.4525 45.0764 42.3432C44.8212 42.2338 44.508 42.1344 44.1368 42.0449L43.0281 41.7665C42.1697 41.5577 41.4919 41.2312 40.9948 40.7871C40.4976 40.3429 40.2507 39.7447 40.254 38.9923C40.2507 38.3758 40.4147 37.8373 40.7462 37.3766C41.0809 36.9159 41.54 36.5562 42.1233 36.2977C42.7066 36.0392 43.3695 35.9099 44.1119 35.9099C44.8676 35.9099 45.5272 36.0392 46.0906 36.2977C46.6574 36.5562 47.0982 36.9159 47.4131 37.3766C47.728 37.8373 47.8904 38.3709 47.9003 38.9774H45.8371ZM58.844 41.14C58.844 42.2504 58.6336 43.195 58.2126 43.9739C57.795 44.7527 57.2249 45.3477 56.5024 45.7587C55.7832 46.1663 54.9745 46.3702 54.0763 46.3702C53.1714 46.3702 52.3594 46.1647 51.6402 45.7537C50.921 45.3427 50.3525 44.7478 49.9349 43.9689C49.5173 43.19 49.3085 42.2471 49.3085 41.14C49.3085 40.0297 49.5173 39.0851 49.9349 38.3062C50.3525 37.5274 50.921 36.9341 51.6402 36.5264C52.3594 36.1154 53.1714 35.9099 54.0763 35.9099C54.9745 35.9099 55.7832 36.1154 56.5024 36.5264C57.2249 36.9341 57.795 37.5274 58.2126 38.3062C58.6336 39.0851 58.844 40.0297 58.844 41.14ZM56.6615 41.14C56.6615 40.4208 56.5538 39.8143 56.3383 39.3204C56.1262 38.8266 55.8263 38.4521 55.4385 38.1969C55.0507 37.9417 54.5966 37.8141 54.0763 37.8141C53.5559 37.8141 53.1018 37.9417 52.714 38.1969C52.3263 38.4521 52.0247 38.8266 51.8092 39.3204C51.5971 39.8143 51.491 40.4208 51.491 41.14C51.491 41.8593 51.5971 42.4658 51.8092 42.9597C52.0247 43.4535 52.3263 43.828 52.714 44.0832C53.1018 44.3384 53.5559 44.466 54.0763 44.466C54.5966 44.466 55.0507 44.3384 55.4385 44.0832C55.8263 43.828 56.1262 43.4535 56.3383 42.9597C56.5538 42.4658 56.6615 41.8593 56.6615 41.14ZM69.7952 41.14C69.7952 42.2504 69.5847 43.195 69.1638 43.9739C68.7462 44.7527 68.1761 45.3477 67.4536 45.7587C66.7343 46.1663 65.9256 46.3702 65.0274 46.3702C64.1226 46.3702 63.3106 46.1647 62.5914 45.7537C61.8721 45.3427 61.3037 44.7478 60.8861 43.9689C60.4685 43.19 60.2597 42.2471 60.2597 41.14C60.2597 40.0297 60.4685 39.0851 60.8861 38.3062C61.3037 37.5274 61.8721 36.9341 62.5914 36.5264C63.3106 36.1154 64.1226 35.9099 65.0274 35.9099C65.9256 35.9099 66.7343 36.1154 67.4536 36.5264C68.1761 36.9341 68.7462 37.5274 69.1638 38.3062C69.5847 39.0851 69.7952 40.0297 69.7952 41.14ZM67.6127 41.14C67.6127 40.4208 67.5049 39.8143 67.2895 39.3204C67.0774 38.8266 66.7774 38.4521 66.3896 38.1969C66.0019 37.9417 65.5478 37.8141 65.0274 37.8141C64.5071 37.8141 64.053 37.9417 63.6652 38.1969C63.2774 38.4521 62.9758 38.8266 62.7604 39.3204C62.5483 39.8143 62.4422 40.4208 62.4422 41.14C62.4422 41.8593 62.5483 42.4658 62.7604 42.9597C62.9758 43.4535 63.2774 43.828 63.6652 44.0832C64.053 44.3384 64.5071 44.466 65.0274 44.466C65.5478 44.466 66.0019 44.3384 66.3896 44.0832C66.7774 43.828 67.0774 43.4535 67.2895 42.9597C67.5049 42.4658 67.6127 41.8593 67.6127 41.14ZM79.9062 36.0491V46.231H78.0468L73.6171 39.8226H73.5425V46.231H71.3898V36.0491H73.279L77.6739 42.4525H77.7634V36.0491H79.9062Z" fill="white"/>
<defs>
<filter id="filter0_d_139_1496" x="0" y="0" width="120" height="86" filterUnits="userSpaceOnUse" color-interpolation-filters="sRGB">
<feFlood flood-opacity="0" result="BackgroundImageFix"/>
<feColorMatrix in="SourceAlpha" type="matrix" values="0 0 0 0 0 0 0 0 0 0 0 0 0 0 0 0 0 0 127 0" result="hardAlpha"/>
<feOffset dy="2"/>
<feGaussianBlur stdDeviation="14"/>
<feColorMatrix type="matrix" values="0 0 0 0 0.215686 0 0 0 0 0.317647 0 0 0 0 1 0 0 0 0.16 0"/>
<feBlend mode="normal" in2="BackgroundImageFix" result="effect1_dropShadow_139_1496"/>
<feBlend mode="normal" in="SourceGraphic" in2="effect1_dropShadow_139_1496" result="shape"/>
</filter>
</defs>
</svg>
