<svg width="136" height="62" viewBox="0 0 136 62" fill="none" xmlns="http://www.w3.org/2000/svg">
<path d="M54.3721 36.5316V25.0698H59.8079C61.6254 25.0698 62.5342 25.9668 62.5342 27.7609V28.824C62.5342 29.2005 62.422 29.5217 62.1976 29.7874L61.6086 30.4851L62.3154 31.0665C62.6857 31.3655 62.8708 31.8085 62.8708 32.3954V33.8406C62.8708 35.6346 61.962 36.5316 60.1445 36.5316H54.3721ZM56.4252 34.7044H60.0772C60.5708 34.7044 60.8176 34.4607 60.8176 33.9735V32.2293C60.8176 31.742 60.5708 31.4984 60.0772 31.4984H56.4252V34.7044ZM56.4252 29.6712H59.7406C60.2342 29.6712 60.4811 29.4275 60.4811 28.9403V27.628C60.4811 27.1407 60.2342 26.8971 59.7406 26.8971H56.4252V29.6712Z" fill="white"/>
<path d="M65.3596 36.5316V25.0698H67.4128V36.5316H65.3596Z" fill="white"/>
<path d="M69.3054 26.8971V25.0698H78.6793V26.8971H75.0105V36.5316H72.9574V26.8971H69.3054Z" fill="white"/>
<path d="M80.4117 33.8406V27.7609C80.4117 25.9668 81.3205 25.0698 83.138 25.0698H87.0256C88.8431 25.0698 89.7519 25.9668 89.7519 27.7609V33.8406C89.7519 35.3688 89.0899 36.2437 87.766 36.4652L88.8599 38.5914L88.6075 39.0233H86.8404L85.5614 36.5316H83.138C81.3205 36.5316 80.4117 35.6346 80.4117 33.8406ZM82.4649 33.9735C82.4649 34.4607 82.7117 34.7044 83.2053 34.7044H86.9582C87.4519 34.7044 87.6987 34.4607 87.6987 33.9735V27.628C87.6987 27.1407 87.4519 26.8971 86.9582 26.8971H83.2053C82.7117 26.8971 82.4649 27.1407 82.4649 27.628V33.9735Z" fill="white"/>
<path d="M92.4033 33.8406V25.0698H94.4565V33.9735C94.4565 34.4607 94.7033 34.7044 95.197 34.7044H98.6133C99.1069 34.7044 99.3538 34.4607 99.3538 33.9735V25.0698H101.407V33.8406C101.407 35.6346 100.498 36.5316 98.6806 36.5316H95.1296C93.3121 36.5316 92.4033 35.6346 92.4033 33.8406Z" fill="white"/>
<path d="M103.121 36.1329L106.705 25.0698H109.886L113.471 36.1329L113.201 36.5316H111.502L110.694 33.9901H105.881L105.09 36.5316H103.39L103.121 36.1329ZM106.453 32.1628H110.138L108.456 26.8971H108.136L106.453 32.1628Z" fill="white"/>
<path d="M115.285 36.5316V25.0698H117.523L122.689 33.2592V25.0698H124.726V36.5316H122.504L117.338 28.3422V36.5316H115.285Z" fill="white"/>
<path d="M126.626 26.8971V25.0698H136V26.8971H132.331V36.5316H130.278V26.8971H126.626Z" fill="white"/>
<g filter="url(#filter0_di_139_2280)">
<ellipse cx="31.05" cy="31" rx="15.05" ry="15" fill="url(#paint0_linear_139_2280)"/>
</g>
<path fill-rule="evenodd" clip-rule="evenodd" d="M35.9723 36.7082C35.5707 37.2693 35.3297 37.9563 35.3297 38.7006C35.3297 39.2388 35.4559 39.7483 35.674 40.2006C34.2797 40.9048 32.7018 41.2998 31.0321 41.2998C25.3288 41.2998 20.71 36.691 20.71 31.0002C20.71 25.3093 25.3346 20.6948 31.0379 20.6948C36.7412 20.6948 41.3601 25.3036 41.3601 30.9945C41.3601 32.6605 40.9642 34.2349 40.2584 35.6262C39.8625 35.4315 39.4207 35.3113 38.956 35.2884C37.6667 35.2884 36.7476 35.7521 35.9723 36.7082Z" fill="white"/>
<path d="M38.7553 41.2998C40.194 41.2998 41.3603 40.1361 41.3603 38.7006C41.3603 37.265 40.194 36.1013 38.7553 36.1013C37.3167 36.1013 36.1504 37.265 36.1504 38.7006C36.1504 40.1361 37.3167 41.2998 38.7553 41.2998Z" fill="white"/>
<path fill-rule="evenodd" clip-rule="evenodd" d="M32.5578 25.1261C32.0701 25.0001 31.5595 24.9314 31.0373 24.9314C30.5037 24.9314 29.9873 25.0001 29.4996 25.1261C26.8889 25.8074 24.9668 28.1719 24.9668 30.9887C24.9668 34.1833 27.4398 36.7997 30.5783 37.0288C30.7275 37.0402 30.8824 37.0459 31.0373 37.0459C31.1865 37.0459 31.3299 37.0402 31.4734 37.0288C34.6234 36.8055 37.1078 34.1833 37.1078 30.9829C37.1078 28.1719 35.1742 25.8016 32.5578 25.1261ZM31.6226 26.5173C28.8226 26.5173 26.5504 28.7845 26.5504 31.5784C26.5504 32.8265 27.0037 33.9715 27.7553 34.8532C26.6594 33.9257 25.9652 32.5402 25.9652 30.9944C25.9652 28.2005 28.2373 25.9333 31.0373 25.9333C32.5865 25.9333 33.975 26.6261 34.9045 27.7196C34.0209 26.9696 32.8734 26.5173 31.6226 26.5173ZM32.5578 25.1261C32.0701 25.0001 31.5595 24.9314 31.0373 24.9314C30.5037 24.9314 29.9873 25.0001 29.4996 25.1261C26.8889 25.8074 24.9668 28.1719 24.9668 30.9887C24.9668 34.1833 27.4398 36.7997 30.5783 37.0288C30.7275 37.0402 30.8824 37.0459 31.0373 37.0459C31.1865 37.0459 31.3299 37.0402 31.4734 37.0288C34.6234 36.8055 37.1078 34.1833 37.1078 30.9829C37.1078 28.1719 35.1742 25.8016 32.5578 25.1261ZM31.6226 26.5173C28.8226 26.5173 26.5504 28.7845 26.5504 31.5784C26.5504 32.8265 27.0037 33.9715 27.7553 34.8532C26.6594 33.9257 25.9652 32.5402 25.9652 30.9944C25.9652 28.2005 28.2373 25.9333 31.0373 25.9333C32.5865 25.9333 33.975 26.6261 34.9045 27.7196C34.0209 26.9696 32.8734 26.5173 31.6226 26.5173ZM32.5578 25.1261C32.0701 25.0001 31.5595 24.9314 31.0373 24.9314C30.5037 24.9314 29.9873 25.0001 29.4996 25.1261C26.8889 25.8074 24.9668 28.1719 24.9668 30.9887C24.9668 34.1833 27.4398 36.7997 30.5783 37.0288C30.7275 37.0402 30.8824 37.0459 31.0373 37.0459C31.1865 37.0459 31.3299 37.0402 31.4734 37.0288C34.6234 36.8055 37.1078 34.1833 37.1078 30.9829C37.1078 28.1719 35.1742 25.8016 32.5578 25.1261ZM31.6226 26.5173C28.8226 26.5173 26.5504 28.7845 26.5504 31.5784C26.5504 32.8265 27.0037 33.9715 27.7553 34.8532C26.6594 33.9257 25.9652 32.5402 25.9652 30.9944C25.9652 28.2005 28.2373 25.9333 31.0373 25.9333C32.5865 25.9333 33.975 26.6261 34.9045 27.7196C34.0209 26.9696 32.8734 26.5173 31.6226 26.5173ZM32.5578 25.1261C32.0701 25.0001 31.5595 24.9314 31.0373 24.9314C30.5037 24.9314 29.9873 25.0001 29.4996 25.1261C26.8889 25.8074 24.9668 28.1719 24.9668 30.9887C24.9668 34.1833 27.4398 36.7997 30.5783 37.0288C30.7275 37.0402 30.8824 37.0459 31.0373 37.0459C31.1865 37.0459 31.3299 37.0402 31.4734 37.0288C34.6234 36.8055 37.1078 34.1833 37.1078 30.9829C37.1078 28.1719 35.1742 25.8016 32.5578 25.1261ZM31.6226 26.5173C28.8226 26.5173 26.5504 28.7845 26.5504 31.5784C26.5504 32.8265 27.0037 33.9715 27.7553 34.8532C26.6594 33.9257 25.9652 32.5402 25.9652 30.9944C25.9652 28.2005 28.2373 25.9333 31.0373 25.9333C32.5865 25.9333 33.975 26.6261 34.9045 27.7196C34.0209 26.9696 32.8734 26.5173 31.6226 26.5173ZM32.5578 25.1261C32.0701 25.0001 31.5595 24.9314 31.0373 24.9314C30.5037 24.9314 29.9873 25.0001 29.4996 25.1261C26.8889 25.8074 24.9668 28.1719 24.9668 30.9887C24.9668 34.1833 27.4398 36.7997 30.5783 37.0288C30.7275 37.0402 30.8824 37.0459 31.0373 37.0459C31.1865 37.0459 31.3299 37.0402 31.4734 37.0288C34.6234 36.8055 37.1078 34.1833 37.1078 30.9829C37.1078 28.1719 35.1742 25.8016 32.5578 25.1261ZM31.6226 26.5173C28.8226 26.5173 26.5504 28.7845 26.5504 31.5784C26.5504 32.8265 27.0037 33.9715 27.7553 34.8532C26.6594 33.9257 25.9652 32.5402 25.9652 30.9944C25.9652 28.2005 28.2373 25.9333 31.0373 25.9333C32.5865 25.9333 33.975 26.6261 34.9045 27.7196C34.0209 26.9696 32.8734 26.5173 31.6226 26.5173ZM32.5578 25.1261C32.0701 25.0001 31.5595 24.9314 31.0373 24.9314C30.5037 24.9314 29.9873 25.0001 29.4996 25.1261C26.8889 25.8074 24.9668 28.1719 24.9668 30.9887C24.9668 34.1833 27.4398 36.7997 30.5783 37.0288C30.7275 37.0402 30.8824 37.0459 31.0373 37.0459C31.1865 37.0459 31.3299 37.0402 31.4734 37.0288C34.6234 36.8055 37.1078 34.1833 37.1078 30.9829C37.1078 28.1719 35.1742 25.8016 32.5578 25.1261ZM31.6226 26.5173C28.8226 26.5173 26.5504 28.7845 26.5504 31.5784C26.5504 32.8265 27.0037 33.9715 27.7553 34.8532C26.6594 33.9257 25.9652 32.5402 25.9652 30.9944C25.9652 28.2005 28.2373 25.9333 31.0373 25.9333C32.5865 25.9333 33.975 26.6261 34.9045 27.7196C34.0209 26.9696 32.8734 26.5173 31.6226 26.5173ZM32.5578 25.1261C32.0701 25.0001 31.5595 24.9314 31.0373 24.9314C30.5037 24.9314 29.9873 25.0001 29.4996 25.1261C26.8889 25.8074 24.9668 28.1719 24.9668 30.9887C24.9668 34.1833 27.4398 36.7997 30.5783 37.0288C30.7275 37.0402 30.8824 37.0459 31.0373 37.0459C31.1865 37.0459 31.3299 37.0402 31.4734 37.0288C34.6234 36.8055 37.1078 34.1833 37.1078 30.9829C37.1078 28.1719 35.1742 25.8016 32.5578 25.1261ZM31.6226 26.5173C28.8226 26.5173 26.5504 28.7845 26.5504 31.5784C26.5504 32.8265 27.0037 33.9715 27.7553 34.8532C26.6594 33.9257 25.9652 32.5402 25.9652 30.9944C25.9652 28.2005 28.2373 25.9333 31.0373 25.9333C32.5865 25.9333 33.975 26.6261 34.9045 27.7196C34.0209 26.9696 32.8734 26.5173 31.6226 26.5173ZM32.5578 25.1261C32.0701 25.0001 31.5595 24.9314 31.0373 24.9314C30.5037 24.9314 29.9873 25.0001 29.4996 25.1261C26.8889 25.8074 24.9668 28.1719 24.9668 30.9887C24.9668 34.1833 27.4398 36.7997 30.5783 37.0288C30.7275 37.0402 30.8824 37.0459 31.0373 37.0459C31.1865 37.0459 31.3299 37.0402 31.4734 37.0288C34.6234 36.8055 37.1078 34.1833 37.1078 30.9829C37.1078 28.1719 35.1742 25.8016 32.5578 25.1261ZM31.6226 26.5173C28.8226 26.5173 26.5504 28.7845 26.5504 31.5784C26.5504 32.8265 27.0037 33.9715 27.7553 34.8532C26.6594 33.9257 25.9652 32.5402 25.9652 30.9944C25.9652 28.2005 28.2373 25.9333 31.0373 25.9333C32.5865 25.9333 33.975 26.6261 34.9045 27.7196C34.0209 26.9696 32.8734 26.5173 31.6226 26.5173ZM32.5578 25.1261C32.0701 25.0001 31.5595 24.9314 31.0373 24.9314C30.5037 24.9314 29.9873 25.0001 29.4996 25.1261C26.8889 25.8074 24.9668 28.1719 24.9668 30.9887C24.9668 34.1833 27.4398 36.7997 30.5783 37.0288C30.7275 37.0402 30.8824 37.0459 31.0373 37.0459C31.1865 37.0459 31.3299 37.0402 31.4734 37.0288C34.6234 36.8055 37.1078 34.1833 37.1078 30.9829C37.1078 28.1719 35.1742 25.8016 32.5578 25.1261ZM31.6226 26.5173C28.8226 26.5173 26.5504 28.7845 26.5504 31.5784C26.5504 32.8265 27.0037 33.9715 27.7553 34.8532C26.6594 33.9257 25.9652 32.5402 25.9652 30.9944C25.9652 28.2005 28.2373 25.9333 31.0373 25.9333C32.5865 25.9333 33.975 26.6261 34.9045 27.7196C34.0209 26.9696 32.8734 26.5173 31.6226 26.5173ZM32.5578 25.1261C32.0701 25.0001 31.5595 24.9314 31.0373 24.9314C30.5037 24.9314 29.9873 25.0001 29.4996 25.1261C26.8889 25.8074 24.9668 28.1719 24.9668 30.9887C24.9668 34.1833 27.4398 36.7997 30.5783 37.0288C30.7275 37.0402 30.8824 37.0459 31.0373 37.0459C31.1865 37.0459 31.3299 37.0402 31.4734 37.0288C34.6234 36.8055 37.1078 34.1833 37.1078 30.9829C37.1078 28.1719 35.1742 25.8016 32.5578 25.1261ZM31.6226 26.5173C28.8226 26.5173 26.5504 28.7845 26.5504 31.5784C26.5504 32.8265 27.0037 33.9715 27.7553 34.8532C26.6594 33.9257 25.9652 32.5402 25.9652 30.9944C25.9652 28.2005 28.2373 25.9333 31.0373 25.9333C32.5865 25.9333 33.975 26.6261 34.9045 27.7196C34.0209 26.9696 32.8734 26.5173 31.6226 26.5173ZM32.5578 25.1261C32.0701 25.0001 31.5595 24.9314 31.0373 24.9314C30.5037 24.9314 29.9873 25.0001 29.4996 25.1261C26.8889 25.8074 24.9668 28.1719 24.9668 30.9887C24.9668 34.1833 27.4398 36.7997 30.5783 37.0288C30.7275 37.0402 30.8824 37.0459 31.0373 37.0459C31.1865 37.0459 31.3299 37.0402 31.4734 37.0288C34.6234 36.8055 37.1078 34.1833 37.1078 30.9829C37.1078 28.1719 35.1742 25.8016 32.5578 25.1261ZM31.6226 26.5173C28.8226 26.5173 26.5504 28.7845 26.5504 31.5784C26.5504 32.8265 27.0037 33.9715 27.7553 34.8532C26.6594 33.9257 25.9652 32.5402 25.9652 30.9944C25.9652 28.2005 28.2373 25.9333 31.0373 25.9333C32.5865 25.9333 33.975 26.6261 34.9045 27.7196C34.0209 26.9696 32.8734 26.5173 31.6226 26.5173ZM32.5578 25.1261C32.0701 25.0001 31.5595 24.9314 31.0373 24.9314C30.5037 24.9314 29.9873 25.0001 29.4996 25.1261C26.8889 25.8074 24.9668 28.1719 24.9668 30.9887C24.9668 34.1833 27.4398 36.7997 30.5783 37.0288C30.7275 37.0402 30.8824 37.0459 31.0373 37.0459C31.1865 37.0459 31.3299 37.0402 31.4734 37.0288C34.6234 36.8055 37.1078 34.1833 37.1078 30.9829C37.1078 28.1719 35.1742 25.8016 32.5578 25.1261ZM31.6226 26.5173C28.8226 26.5173 26.5504 28.7845 26.5504 31.5784C26.5504 32.8265 27.0037 33.9715 27.7553 34.8532C26.6594 33.9257 25.9652 32.5402 25.9652 30.9944C25.9652 28.2005 28.2373 25.9333 31.0373 25.9333C32.5865 25.9333 33.975 26.6261 34.9045 27.7196C34.0209 26.9696 32.8734 26.5173 31.6226 26.5173ZM32.5578 25.1261C32.0701 25.0001 31.5595 24.9314 31.0373 24.9314C30.5037 24.9314 29.9873 25.0001 29.4996 25.1261C26.8889 25.8074 24.9668 28.1719 24.9668 30.9887C24.9668 34.1833 27.4398 36.7997 30.5783 37.0288C30.7275 37.0402 30.8824 37.0459 31.0373 37.0459C31.1865 37.0459 31.3299 37.0402 31.4734 37.0288C34.6234 36.8055 37.1078 34.1833 37.1078 30.9829C37.1078 28.1719 35.1742 25.8016 32.5578 25.1261ZM31.6226 26.5173C28.8226 26.5173 26.5504 28.7845 26.5504 31.5784C26.5504 32.8265 27.0037 33.9715 27.7553 34.8532C26.6594 33.9257 25.9652 32.5402 25.9652 30.9944C25.9652 28.2005 28.2373 25.9333 31.0373 25.9333C32.5865 25.9333 33.975 26.6261 34.9045 27.7196C34.0209 26.9696 32.8734 26.5173 31.6226 26.5173ZM32.5578 25.1261C32.0701 25.0001 31.5595 24.9314 31.0373 24.9314C30.5037 24.9314 29.9873 25.0001 29.4996 25.1261C26.8889 25.8074 24.9668 28.1719 24.9668 30.9887C24.9668 34.1833 27.4398 36.7997 30.5783 37.0288C30.7275 37.0402 30.8824 37.0459 31.0373 37.0459C31.1865 37.0459 31.3299 37.0402 31.4734 37.0288C34.6234 36.8055 37.1078 34.1833 37.1078 30.9829C37.1078 28.1719 35.1742 25.8016 32.5578 25.1261ZM31.6226 26.5173C28.8226 26.5173 26.5504 28.7845 26.5504 31.5784C26.5504 32.8265 27.0037 33.9715 27.7553 34.8532C26.6594 33.9257 25.9652 32.5402 25.9652 30.9944C25.9652 28.2005 28.2373 25.9333 31.0373 25.9333C32.5865 25.9333 33.975 26.6261 34.9045 27.7196C34.0209 26.9696 32.8734 26.5173 31.6226 26.5173ZM32.5578 25.1261C32.0701 25.0001 31.5595 24.9314 31.0373 24.9314C30.5037 24.9314 29.9873 25.0001 29.4996 25.1261C26.8889 25.8074 24.9668 28.1719 24.9668 30.9887C24.9668 34.1833 27.4398 36.7997 30.5783 37.0288C30.7275 37.0402 30.8824 37.0459 31.0373 37.0459C31.1865 37.0459 31.3299 37.0402 31.4734 37.0288C34.6234 36.8055 37.1078 34.1833 37.1078 30.9829C37.1078 28.1719 35.1742 25.8016 32.5578 25.1261ZM31.6226 26.5173C28.8226 26.5173 26.5504 28.7845 26.5504 31.5784C26.5504 32.8265 27.0037 33.9715 27.7553 34.8532C26.6594 33.9257 25.9652 32.5402 25.9652 30.9944C25.9652 28.2005 28.2373 25.9333 31.0373 25.9333C32.5865 25.9333 33.975 26.6261 34.9045 27.7196C34.0209 26.9696 32.8734 26.5173 31.6226 26.5173ZM32.5578 25.1261C32.0701 25.0001 31.5595 24.9314 31.0373 24.9314C30.5037 24.9314 29.9873 25.0001 29.4996 25.1261C26.8889 25.8074 24.9668 28.1719 24.9668 30.9887C24.9668 34.1833 27.4398 36.7997 30.5783 37.0288C30.7275 37.0402 30.8824 37.0459 31.0373 37.0459C31.1865 37.0459 31.3299 37.0402 31.4734 37.0288C34.6234 36.8055 37.1078 34.1833 37.1078 30.9829C37.1078 28.1719 35.1742 25.8016 32.5578 25.1261ZM31.6226 26.5173C28.8226 26.5173 26.5504 28.7845 26.5504 31.5784C26.5504 32.8265 27.0037 33.9715 27.7553 34.8532C26.6594 33.9257 25.9652 32.5402 25.9652 30.9944C25.9652 28.2005 28.2373 25.9333 31.0373 25.9333C32.5865 25.9333 33.975 26.6261 34.9045 27.7196C34.0209 26.9696 32.8734 26.5173 31.6226 26.5173ZM32.5578 25.1261C32.0701 25.0001 31.5595 24.9314 31.0373 24.9314C30.5037 24.9314 29.9873 25.0001 29.4996 25.1261C26.8889 25.8074 24.9668 28.1719 24.9668 30.9887C24.9668 34.1833 27.4398 36.7997 30.5783 37.0288C30.7275 37.0402 30.8824 37.0459 31.0373 37.0459C31.1865 37.0459 31.3299 37.0402 31.4734 37.0288C34.6234 36.8055 37.1078 34.1833 37.1078 30.9829C37.1078 28.1719 35.1742 25.8016 32.5578 25.1261ZM31.6226 26.5173C28.8226 26.5173 26.5504 28.7845 26.5504 31.5784C26.5504 32.8265 27.0037 33.9715 27.7553 34.8532C26.6594 33.9257 25.9652 32.5402 25.9652 30.9944C25.9652 28.2005 28.2373 25.9333 31.0373 25.9333C32.5865 25.9333 33.975 26.6261 34.9045 27.7196C34.0209 26.9696 32.8734 26.5173 31.6226 26.5173ZM32.5578 25.1261C32.0701 25.0001 31.5595 24.9314 31.0373 24.9314C30.5037 24.9314 29.9873 25.0001 29.4996 25.1261C26.8889 25.8074 24.9668 28.1719 24.9668 30.9887C24.9668 34.1833 27.4398 36.7997 30.5783 37.0288C30.7275 37.0402 30.8824 37.0459 31.0373 37.0459C31.1865 37.0459 31.3299 37.0402 31.4734 37.0288C34.6234 36.8055 37.1078 34.1833 37.1078 30.9829C37.1078 28.1719 35.1742 25.8016 32.5578 25.1261ZM31.6226 26.5173C28.8226 26.5173 26.5504 28.7845 26.5504 31.5784C26.5504 32.8265 27.0037 33.9715 27.7553 34.8532C26.6594 33.9257 25.9652 32.5402 25.9652 30.9944C25.9652 28.2005 28.2373 25.9333 31.0373 25.9333C32.5865 25.9333 33.975 26.6261 34.9045 27.7196C34.0209 26.9696 32.8734 26.5173 31.6226 26.5173ZM32.5578 25.1261C32.0701 25.0001 31.5595 24.9314 31.0373 24.9314C30.5037 24.9314 29.9873 25.0001 29.4996 25.1261C26.8889 25.8074 24.9668 28.1719 24.9668 30.9887C24.9668 34.1833 27.4398 36.7997 30.5783 37.0288C30.7275 37.0402 30.8824 37.0459 31.0373 37.0459C31.1865 37.0459 31.3299 37.0402 31.4734 37.0288C34.6234 36.8055 37.1078 34.1833 37.1078 30.9829C37.1078 28.1719 35.1742 25.8016 32.5578 25.1261ZM31.6226 26.5173C28.8226 26.5173 26.5504 28.7845 26.5504 31.5784C26.5504 32.8265 27.0037 33.9715 27.7553 34.8532C26.6594 33.9257 25.9652 32.5402 25.9652 30.9944C25.9652 28.2005 28.2373 25.9333 31.0373 25.9333C32.5865 25.9333 33.975 26.6261 34.9045 27.7196C34.0209 26.9696 32.8734 26.5173 31.6226 26.5173ZM32.5578 25.1261C32.0701 25.0001 31.5595 24.9314 31.0373 24.9314C30.5037 24.9314 29.9873 25.0001 29.4996 25.1261C26.8889 25.8074 24.9668 28.1719 24.9668 30.9887C24.9668 34.1833 27.4398 36.7997 30.5783 37.0288C30.7275 37.0402 30.8824 37.0459 31.0373 37.0459C31.1865 37.0459 31.3299 37.0402 31.4734 37.0288C34.6234 36.8055 37.1078 34.1833 37.1078 30.9829C37.1078 28.1719 35.1742 25.8016 32.5578 25.1261ZM31.6226 26.5173C28.8226 26.5173 26.5504 28.7845 26.5504 31.5784C26.5504 32.8265 27.0037 33.9715 27.7553 34.8532C26.6594 33.9257 25.9652 32.5402 25.9652 30.9944C25.9652 28.2005 28.2373 25.9333 31.0373 25.9333C32.5865 25.9333 33.975 26.6261 34.9045 27.7196C34.0209 26.9696 32.8734 26.5173 31.6226 26.5173ZM32.5578 25.1261C32.0701 25.0001 31.5595 24.9314 31.0373 24.9314C30.5037 24.9314 29.9873 25.0001 29.4996 25.1261C26.8889 25.8074 24.9668 28.1719 24.9668 30.9887C24.9668 34.1833 27.4398 36.7997 30.5783 37.0288C30.7275 37.0402 30.8824 37.0459 31.0373 37.0459C31.1865 37.0459 31.3299 37.0402 31.4734 37.0288C34.6234 36.8055 37.1078 34.1833 37.1078 30.9829C37.1078 28.1719 35.1742 25.8016 32.5578 25.1261ZM31.6226 26.5173C28.8226 26.5173 26.5504 28.7845 26.5504 31.5784C26.5504 32.8265 27.0037 33.9715 27.7553 34.8532C26.6594 33.9257 25.9652 32.5402 25.9652 30.9944C25.9652 28.2005 28.2373 25.9333 31.0373 25.9333C32.5865 25.9333 33.975 26.6261 34.9045 27.7196C34.0209 26.9696 32.8734 26.5173 31.6226 26.5173ZM32.5578 25.1261C32.0701 25.0001 31.5595 24.9314 31.0373 24.9314C30.5037 24.9314 29.9873 25.0001 29.4996 25.1261C26.8889 25.8074 24.9668 28.1719 24.9668 30.9887C24.9668 34.1833 27.4398 36.7997 30.5783 37.0288C30.7275 37.0402 30.8824 37.0459 31.0373 37.0459C31.1865 37.0459 31.3299 37.0402 31.4734 37.0288C34.6234 36.8055 37.1078 34.1833 37.1078 30.9829C37.1078 28.1719 35.1742 25.8016 32.5578 25.1261ZM31.6226 26.5173C28.8226 26.5173 26.5504 28.7845 26.5504 31.5784C26.5504 32.8265 27.0037 33.9715 27.7553 34.8532C26.6594 33.9257 25.9652 32.5402 25.9652 30.9944C25.9652 28.2005 28.2373 25.9333 31.0373 25.9333C32.5865 25.9333 33.975 26.6261 34.9045 27.7196C34.0209 26.9696 32.8734 26.5173 31.6226 26.5173ZM32.5578 25.1261C32.0701 25.0001 31.5595 24.9314 31.0373 24.9314C30.5037 24.9314 29.9873 25.0001 29.4996 25.1261C26.8889 25.8074 24.9668 28.1719 24.9668 30.9887C24.9668 34.1833 27.4398 36.7997 30.5783 37.0288C30.7275 37.0402 30.8824 37.0459 31.0373 37.0459C31.1865 37.0459 31.3299 37.0402 31.4734 37.0288C34.6234 36.8055 37.1078 34.1833 37.1078 30.9829C37.1078 28.1719 35.1742 25.8016 32.5578 25.1261ZM31.6226 26.5173C28.8226 26.5173 26.5504 28.7845 26.5504 31.5784C26.5504 32.8265 27.0037 33.9715 27.7553 34.8532C26.6594 33.9257 25.9652 32.5402 25.9652 30.9944C25.9652 28.2005 28.2373 25.9333 31.0373 25.9333C32.5865 25.9333 33.975 26.6261 34.9045 27.7196C34.0209 26.9696 32.8734 26.5173 31.6226 26.5173ZM32.5578 25.1261C32.0701 25.0001 31.5595 24.9314 31.0373 24.9314C30.5037 24.9314 29.9873 25.0001 29.4996 25.1261C26.8889 25.8074 24.9668 28.1719 24.9668 30.9887C24.9668 34.1833 27.4398 36.7997 30.5783 37.0288C30.7275 37.0402 30.8824 37.0459 31.0373 37.0459C31.1865 37.0459 31.3299 37.0402 31.4734 37.0288C34.6234 36.8055 37.1078 34.1833 37.1078 30.9829C37.1078 28.1719 35.1742 25.8016 32.5578 25.1261ZM31.6226 26.5173C28.8226 26.5173 26.5504 28.7845 26.5504 31.5784C26.5504 32.8265 27.0037 33.9715 27.7553 34.8532C26.6594 33.9257 25.9652 32.5402 25.9652 30.9944C25.9652 28.2005 28.2373 25.9333 31.0373 25.9333C32.5865 25.9333 33.975 26.6261 34.9045 27.7196C34.0209 26.9696 32.8734 26.5173 31.6226 26.5173ZM32.5578 25.1261C32.0701 25.0001 31.5595 24.9314 31.0373 24.9314C30.5037 24.9314 29.9873 25.0001 29.4996 25.1261C26.8889 25.8074 24.9668 28.1719 24.9668 30.9887C24.9668 34.1833 27.4398 36.7997 30.5783 37.0288C30.7275 37.0402 30.8824 37.0459 31.0373 37.0459C31.1865 37.0459 31.3299 37.0402 31.4734 37.0288C34.6234 36.8055 37.1078 34.1833 37.1078 30.9829C37.1078 28.1719 35.1742 25.8016 32.5578 25.1261ZM31.6226 26.5173C28.8226 26.5173 26.5504 28.7845 26.5504 31.5784C26.5504 32.8265 27.0037 33.9715 27.7553 34.8532C26.6594 33.9257 25.9652 32.5402 25.9652 30.9944C25.9652 28.2005 28.2373 25.9333 31.0373 25.9333C32.5865 25.9333 33.975 26.6261 34.9045 27.7196C34.0209 26.9696 32.8734 26.5173 31.6226 26.5173ZM32.5578 25.1261C32.0701 25.0001 31.5595 24.9314 31.0373 24.9314C30.5037 24.9314 29.9873 25.0001 29.4996 25.1261C26.8889 25.8074 24.9668 28.1719 24.9668 30.9887C24.9668 34.1833 27.4398 36.7997 30.5783 37.0288C30.7275 37.0402 30.8824 37.0459 31.0373 37.0459C31.1865 37.0459 31.3299 37.0402 31.4734 37.0288C34.6234 36.8055 37.1078 34.1833 37.1078 30.9829C37.1078 28.1719 35.1742 25.8016 32.5578 25.1261ZM31.6226 26.5173C28.8226 26.5173 26.5504 28.7845 26.5504 31.5784C26.5504 32.8265 27.0037 33.9715 27.7553 34.8532C26.6594 33.9257 25.9652 32.5402 25.9652 30.9944C25.9652 28.2005 28.2373 25.9333 31.0373 25.9333C32.5865 25.9333 33.975 26.6261 34.9045 27.7196C34.0209 26.9696 32.8734 26.5173 31.6226 26.5173ZM32.5578 25.1261C32.0701 25.0001 31.5595 24.9314 31.0373 24.9314C30.5037 24.9314 29.9873 25.0001 29.4996 25.1261C26.8889 25.8074 24.9668 28.1719 24.9668 30.9887C24.9668 34.1833 27.4398 36.7997 30.5783 37.0288C30.7275 37.0402 30.8824 37.0459 31.0373 37.0459C31.1865 37.0459 31.3299 37.0402 31.4734 37.0288C34.6234 36.8055 37.1078 34.1833 37.1078 30.9829C37.1078 28.1719 35.1742 25.8016 32.5578 25.1261ZM31.6226 26.5173C28.8226 26.5173 26.5504 28.7845 26.5504 31.5784C26.5504 32.8265 27.0037 33.9715 27.7553 34.8532C26.6594 33.9257 25.9652 32.5402 25.9652 30.9944C25.9652 28.2005 28.2373 25.9333 31.0373 25.9333C32.5865 25.9333 33.975 26.6261 34.9045 27.7196C34.0209 26.9696 32.8734 26.5173 31.6226 26.5173Z" fill="#252733"/>
<defs>
<filter id="filter0_di_139_2280" x="0" y="0" width="62.0996" height="62" filterUnits="userSpaceOnUse" color-interpolation-filters="sRGB">
<feFlood flood-opacity="0" result="BackgroundImageFix"/>
<feColorMatrix in="SourceAlpha" type="matrix" values="0 0 0 0 0 0 0 0 0 0 0 0 0 0 0 0 0 0 127 0" result="hardAlpha"/>
<feMorphology radius="4" operator="dilate" in="SourceAlpha" result="effect1_dropShadow_139_2280"/>
<feOffset/>
<feGaussianBlur stdDeviation="6"/>
<feComposite in2="hardAlpha" operator="out"/>
<feColorMatrix type="matrix" values="0 0 0 0 0.303125 0 0 0 0 0.808333 0 0 0 0 0.663086 0 0 0 0.69 0"/>
<feBlend mode="normal" in2="BackgroundImageFix" result="effect1_dropShadow_139_2280"/>
<feBlend mode="normal" in="SourceGraphic" in2="effect1_dropShadow_139_2280" result="shape"/>
<feColorMatrix in="SourceAlpha" type="matrix" values="0 0 0 0 0 0 0 0 0 0 0 0 0 0 0 0 0 0 127 0" result="hardAlpha"/>
<feOffset/>
<feGaussianBlur stdDeviation="6"/>
<feComposite in2="hardAlpha" operator="arithmetic" k2="-1" k3="1"/>
<feColorMatrix type="matrix" values="0 0 0 0 0.219608 0 0 0 0 0.819608 0 0 0 0 0.737255 0 0 0 1 0"/>
<feBlend mode="normal" in2="shape" result="effect2_innerShadow_139_2280"/>
</filter>
<linearGradient id="paint0_linear_139_2280" x1="31.05" y1="16" x2="31.05" y2="46.0001" gradientUnits="userSpaceOnUse">
<stop stop-color="#00A171"/>
<stop offset="1" stop-color="#007CC3"/>
</linearGradient>
</defs>
</svg>
